<svg xmlns="http://www.w3.org/2000/svg" width="22" height="24" viewBox="0 0 22 24">
  <path id="Path_285" data-name="Path 285" d="M23.47,15.8H36.515A2.71,2.71,0,0,0,39.2,13.08V7.457a.063.063,0,0,0,0-.03c0-.01,0-.025,0-.035s0-.02,0-.03a.322.322,0,0,1-.01-.035c0-.01,0-.02-.01-.03s0-.02-.01-.03a.243.243,0,0,1-.015-.035.108.108,0,0,0-.015-.025l-.015-.03c0-.01-.01-.015-.015-.025s-.015-.02-.019-.03a.087.087,0,0,0-.019-.025c0-.01-.015-.015-.019-.025s-.015-.015-.019-.025-.015-.015-.019-.02l-.024-.025c-.01,0-.015-.015-.024-.02s-.019-.015-.029-.02L38.9,6.953a.1.1,0,0,1-.029-.02l-.029-.015L38.811,6.9l-.029-.015c-.01,0-.019,0-.029-.01a.089.089,0,0,0-.034-.01.208.208,0,0,1-.024,0,.106.106,0,0,0-.039,0s-.01,0-.019,0L22.1,4.541V2.2a.308.308,0,0,0,0-.069.038.038,0,0,0,0-.02c0-.015,0-.03,0-.044s0-.025-.01-.039,0-.015,0-.025l-.015-.044s0-.015,0-.02a.148.148,0,0,0-.019-.039s0-.015-.01-.02a.1.1,0,0,0-.019-.03c0-.01-.01-.015-.015-.025s-.01-.015-.015-.025-.015-.02-.019-.03l-.015-.015-.029-.03L21.9,1.715a.212.212,0,0,0-.034-.03s-.015-.01-.019-.015-.019-.015-.029-.025a.447.447,0,0,0-.039-.025s-.01,0-.015-.01l-.063-.03L18.113.053a.653.653,0,0,0-.861.355.668.668,0,0,0,.35.873l3.182,1.361v14.59a2.713,2.713,0,0,0,2.34,2.7,2.718,2.718,0,0,0-.38,1.381,2.652,2.652,0,1,0,4.938-1.356H33.59a2.644,2.644,0,1,0,2.287-1.332H23.47A1.383,1.383,0,0,1,22.1,17.233V15.428A2.688,2.688,0,0,0,23.47,15.8Zm3.27,5.5A1.338,1.338,0,1,1,25.4,19.951,1.35,1.35,0,0,1,26.74,21.307Zm10.48,0a1.338,1.338,0,1,1-1.338-1.356A1.35,1.35,0,0,1,37.22,21.307Z" transform="translate(-17.2)" fill="#665e53"/>
</svg>
