<svg id="Comment" xmlns="http://www.w3.org/2000/svg" width="24" height="24" viewBox="0 0 24 24">
  <path id="Path_284" data-name="Path 284" d="M15.75,12.75H8.25a.75.75,0,0,0,0,1.5h7.5a.75.75,0,0,0,0-1.5Zm1.5-4.5H6.75a.75.75,0,0,0,0,1.5h10.5a.75.75,0,0,0,0-1.5ZM12,0C5.373,0,0,4.7,0,10.5a10.05,10.05,0,0,0,4.5,8.189V24l5.257-3.19A13.761,13.761,0,0,0,12,21c6.628,0,12-4.7,12-10.5S18.628,0,12,0Zm0,19.5a12.137,12.137,0,0,1-2.535-.275L5.934,21.347l.047-3.478A8.7,8.7,0,0,1,1.5,10.5c0-4.97,4.7-9,10.5-9s10.5,4.03,10.5,9S17.8,19.5,12,19.5Z" transform="translate(0)" fill="#665e53"/>
</svg>
