<svg xmlns="http://www.w3.org/2000/svg" width="24" height="24" viewBox="0 0 24 24">
  <path id="download-arrow" d="M18.174,13.138a.671.671,0,0,0,0-.939.617.617,0,0,0-.9,0l-4.63,4.753V1.246A.653.653,0,0,0,12,.579a.66.66,0,0,0-.648.667V16.952L6.731,12.2a.627.627,0,0,0-.913,0,.671.671,0,0,0,0,.939l5.726,5.89a.643.643,0,0,0,.913,0Zm4.539,4.312a.645.645,0,0,1,.639-.657A.652.652,0,0,1,24,17.45v6.462a.66.66,0,0,1-.648.667H.639A.653.653,0,0,1,0,23.912V17.45a.645.645,0,0,1,.639-.657.652.652,0,0,1,.648.657v5.805H22.712Z" transform="translate(0 -0.579)" fill="#665e53"/>
</svg>
