<svg xmlns="http://www.w3.org/2000/svg" width="20" height="20" viewBox="0 0 20 20"><g transform="translate(3.874 0.939)"><path d="M26.87,4.731,25.541,6.268,22,2.637,23.5,1.35h.41L26.87,4.223Z" transform="translate(-11.655 -1.35)" fill="rgba(9,24,30,0.6)"/><path d="M17.729,4.14l3.437,3.478L13.5,15.438l-3.43-3.478Z" transform="translate(-8.025 -2.199)" fill="rgba(9,24,30,0.6)"/><path d="M11.909,19.661,7.13,21.01l1.391-4.8Z" transform="translate(-7.13 -5.872)" fill="rgba(9,24,30,0.6)"/></g><path d="M15.13,20H4.87A4.876,4.876,0,0,1,0,15.13V4.87A4.876,4.876,0,0,1,4.87,0h7.364a.963.963,0,1,1,0,1.927H4.87A2.943,2.943,0,0,0,1.927,4.87V15.13A2.943,2.943,0,0,0,4.87,18.073H15.13a2.943,2.943,0,0,0,2.943-2.943V7.766a.963.963,0,1,1,1.927,0V15.13A4.876,4.876,0,0,1,15.13,20Z" transform="translate(0 0)" fill="rgba(9,24,30,0.6)"/></svg>