<svg xmlns="http://www.w3.org/2000/svg" width="26" height="24" viewBox="0 0 26 24">
  <path id="heart_2_" data-name="heart (2)" d="M23.938,2.349A6.877,6.877,0,0,0,18.737,0a6.392,6.392,0,0,0-4.085,1.463A8.542,8.542,0,0,0,13,3.252a8.537,8.537,0,0,0-1.652-1.789A6.391,6.391,0,0,0,7.264,0a6.877,6.877,0,0,0-5.2,2.349A8.618,8.618,0,0,0,0,8.107a10.248,10.248,0,0,0,2.579,6.572,55.886,55.886,0,0,0,6.455,6.286c.894.791,1.908,1.687,2.961,2.642a1.485,1.485,0,0,0,2.01,0c1.053-.955,2.067-1.852,2.962-2.643a55.855,55.855,0,0,0,6.455-6.286A10.247,10.247,0,0,0,26,8.107a8.617,8.617,0,0,0-2.063-5.758Zm0,0" transform="translate(-0.001)" fill="#665e53"/>
</svg>
