<svg xmlns="http://www.w3.org/2000/svg" width="26" height="24" viewBox="0 0 26 24">
  <path id="heart_1_" data-name="heart (1)" d="M13,24a1.493,1.493,0,0,1-1.005-.392c-1.05-.953-2.063-1.848-2.956-2.638l0,0a55.88,55.88,0,0,1-6.455-6.286A10.248,10.248,0,0,1,0,8.107,8.617,8.617,0,0,1,2.063,2.349,6.877,6.877,0,0,1,7.263,0a6.391,6.391,0,0,1,4.085,1.463A8.541,8.541,0,0,1,13,3.252a8.542,8.542,0,0,1,1.652-1.789A6.391,6.391,0,0,1,18.737,0a6.877,6.877,0,0,1,5.2,2.349A8.617,8.617,0,0,1,26,8.107a10.247,10.247,0,0,1-2.579,6.572,55.875,55.875,0,0,1-6.455,6.286c-.9.791-1.909,1.688-2.962,2.643A1.494,1.494,0,0,1,13,24ZM7.263,1.58A5.4,5.4,0,0,0,3.182,3.42,7.011,7.011,0,0,0,1.523,8.107a8.619,8.619,0,0,0,2.228,5.564,54.984,54.984,0,0,0,6.27,6.092l0,0c.9.793,1.913,1.692,2.971,2.652,1.064-.962,2.083-1.862,2.981-2.656a55,55,0,0,0,6.27-6.092,8.62,8.62,0,0,0,2.228-5.564A7.011,7.011,0,0,0,22.818,3.42a5.4,5.4,0,0,0-4.081-1.84,4.936,4.936,0,0,0-3.154,1.133,7.6,7.6,0,0,0-1.758,2.11.944.944,0,0,1-1.652,0,7.593,7.593,0,0,0-1.758-2.11A4.936,4.936,0,0,0,7.263,1.58Zm0,0" fill="#665e53"/>
</svg>
