<svg xmlns="http://www.w3.org/2000/svg" width="50" height="47" viewBox="0 0 50 47"><g transform="translate(0 -18.3)"><g transform="translate(0 18.3)"><path d="M118.318,300.251a1.427,1.427,0,0,0-1.432,1.466v20.028H106.731v-8.178a1.432,1.432,0,0,0-1.38-1.438H98.009a1.464,1.464,0,0,0-1.458,1.438v8.178H86.423V302.382a1.406,1.406,0,1,0-2.812,0v20.829a1.408,1.408,0,0,0,1.38,1.415H98.009a1.408,1.408,0,0,0,1.38-1.415v-8.178h4.53v8.178a1.419,1.419,0,0,0,1.432,1.415h12.966a1.408,1.408,0,0,0,1.38-1.415V301.717A1.417,1.417,0,0,0,118.318,300.251Z" transform="translate(-76.666 -277.627)"/><path d="M49.592,42.863,38.221,31.252V23.335a1.452,1.452,0,0,0-1.467-1.461,1.42,1.42,0,0,0-1.389,1.461v5.013l-9.38-9.593a1.368,1.368,0,0,0-.969-.455,1.413,1.413,0,0,0-1.022.455L.438,42.7a1.387,1.387,0,0,0,0,2.023,1.335,1.335,0,0,0,1.991,0L25.015,21.818,47.548,44.943a1.379,1.379,0,0,0,1.022.375,1.567,1.567,0,0,0,1.022-.375A1.53,1.53,0,0,0,49.592,42.863Z" transform="translate(0 -18.3)"/></g></g></svg>