<svg xmlns="http://www.w3.org/2000/svg" width="47" height="50" viewBox="0 0 47 50"><g transform="translate(-17.6)"><g transform="translate(17.6 0)"><path d="M155.777,142.043l.021-.021a.792.792,0,0,0,.083-.114c.01-.01.01-.021.021-.031.021-.041.052-.083.073-.124a.036.036,0,0,1,.01-.021c.021-.042.042-.083.062-.135,0-.01,0-.01.01-.021.021-.042.031-.093.052-.145,0-.01,0-.021.01-.021a.727.727,0,0,0,.031-.145.094.094,0,0,1,.01-.052c.01-.041.01-.083.021-.124a1.5,1.5,0,0,0,0-.353.521.521,0,0,0-.021-.124.093.093,0,0,0-.01-.052c-.01-.052-.021-.093-.031-.145,0-.01,0-.021-.01-.021a.813.813,0,0,0-.052-.145c0-.01,0-.01-.01-.021-.021-.042-.042-.093-.062-.135a.036.036,0,0,0-.01-.021.772.772,0,0,0-.073-.124c-.01-.01-.01-.021-.021-.031a1.085,1.085,0,0,0-.083-.114l-.021-.021a1.471,1.471,0,0,0-.124-.135L145.392,129.4a1.783,1.783,0,0,0-2.521,2.521l7.221,7.221H121.384a1.779,1.779,0,1,0,0,3.559H150.1l-7.169,7.169a1.779,1.779,0,1,0,2.511,2.521l10.2-10.2C155.694,142.126,155.736,142.085,155.777,142.043Z" transform="translate(-109.192 -115.917)"/><path d="M27.259,3.5h13.28a1.768,1.768,0,0,0,1.784-1.745A1.77,1.77,0,0,0,40.539,0H27.259A9.6,9.6,0,0,0,17.6,9.5v31A9.6,9.6,0,0,0,27.259,50H40.321a1.751,1.751,0,1,0,0-3.5H27.259a6.061,6.061,0,0,1-6.1-6V9.5A6.061,6.061,0,0,1,27.259,3.5Z" transform="translate(-17.6 0)"/></g></g></svg>