<svg xmlns="http://www.w3.org/2000/svg" width="21" height="21" viewBox="0 0 21 21"><path d="M21.665,19.128l-5.177-5.2a8.278,8.278,0,0,0,2.06-5.451A8.644,8.644,0,0,0,9.766,0,8.644,8.644,0,0,0,.984,8.479a8.644,8.644,0,0,0,8.782,8.479A8.9,8.9,0,0,0,14.8,15.423l5.216,5.238a1.175,1.175,0,0,0,1.619.031A1.08,1.08,0,0,0,21.665,19.128ZM9.766,2.212a6.389,6.389,0,0,1,6.491,6.267,6.389,6.389,0,0,1-6.491,6.267A6.389,6.389,0,0,1,3.275,8.479,6.389,6.389,0,0,1,9.766,2.212Z" transform="translate(-0.984)" fill="rgba(0,0,0,0.6)"/></svg>