<svg xmlns="http://www.w3.org/2000/svg" width="20" height="20" viewBox="0 0 20 20"><defs><style>.a{fill:#665e53;}</style></defs><path class="a" d="M18.879.763h-.714A.584.584,0,0,0,18.2.587a.611.611,0,0,0-1.22,0,.533.533,0,0,0,.037.176H14.683A.566.566,0,0,0,14.72.587a.611.611,0,0,0-1.222,0,.549.549,0,0,0,.037.176H11.2a.566.566,0,0,0,.037-.176.611.611,0,0,0-1.221,0,.566.566,0,0,0,.037.176H7.715A.566.566,0,0,0,7.752.587a.611.611,0,0,0-1.221,0,.548.548,0,0,0,.037.176H4.231A.548.548,0,0,0,4.268.587a.611.611,0,0,0-1.22,0,.566.566,0,0,0,.037.176H2.371A1.715,1.715,0,0,0,.625,2.443V18.321A1.715,1.715,0,0,0,2.371,20H16.908l3.717-3.576V2.443A1.715,1.715,0,0,0,18.879.763Zm.794,15.281-.2.19h-1.5a1.25,1.25,0,0,0-1.27,1.221v1.438l-.2.19H2.371a.78.78,0,0,1-.794-.763V5.5h18.1Z" transform="translate(-0.625 0)"/><path class="a" d="M6.681,19.857H11.12l-.31-.537a1.356,1.356,0,0,1-.176-.661,2.615,2.615,0,1,1,3.535-2.852l1.792-1.035a1.359,1.359,0,0,1,1.852.485v-1.35A1.314,1.314,0,0,0,16.5,12.6H10.8a1.264,1.264,0,0,0-1.309-1.2H7.988a1.264,1.264,0,0,0-1.309,1.2h0a1.314,1.314,0,0,0-1.306,1.309v4.639A1.314,1.314,0,0,0,6.681,19.857Z" transform="translate(-2.499 -4.592)"/><path class="a" d="M15.915,18.1a1.637,1.637,0,1,0-2.256,1.514A1.38,1.38,0,0,1,14,19.332l1.9-1.1A1.1,1.1,0,0,0,15.915,18.1Z" transform="translate(-5.001 -6.468)"/><path class="a" d="M19.523,17.285l-4.651,2.687a.924.924,0,0,0-.339,1.261l1.679,2.907a.924.924,0,0,0,1.261.339l4.652-2.686a.925.925,0,0,0,.339-1.261l-1.679-2.908A.925.925,0,0,0,19.523,17.285Zm2.349,4.071L17.22,24.042a.422.422,0,0,1-.574-.154L14.968,20.98a.42.42,0,0,1,.154-.574l4.651-2.685a.42.42,0,0,1,.573.154l1.678,2.908A.417.417,0,0,1,21.872,21.355Z" transform="translate(-5.502 -6.989)"/><path class="a" d="M18.863,22.276c.2.117.836.262.953.058s-.326-.676-.528-.795a.425.425,0,1,0-.424.737Z" transform="translate(-7.201 -8.384)"/><path class="a" d="M22.227,23.29c-.2-.117-.835-.262-.953-.059s.327.678.529.794a.425.425,0,1,0,.424-.736Z" transform="translate(-8.15 -9.027)"/><path class="a" d="M19.815,23.229c-.117-.2-.75-.056-.952.061a.425.425,0,0,0,.425.736C19.49,23.908,19.932,23.433,19.815,23.229Z" transform="translate(-7.2 -9.026)"/><path class="a" d="M21.8,21.539c-.2.118-.644.593-.528.8s.749.056.952-.061a.425.425,0,0,0-.424-.737Z" transform="translate(-8.151 -8.384)"/><path class="a" d="M20.644,23.516c-.234,0-.425.621-.426.855a.426.426,0,0,0,.852,0C21.068,24.137,20.877,23.517,20.644,23.516Z" transform="translate(-7.774 -9.186)"/><path class="a" d="M20.645,21.856c.233,0,.424-.621.425-.855a.426.426,0,1,0-.851,0C20.219,21.236,20.409,21.856,20.645,21.856Z" transform="translate(-7.774 -8.037)"/><circle class="a" cx="0.17" cy="0.17" r="0.17" transform="translate(12.699 13.912)"/></svg>