<svg xmlns="http://www.w3.org/2000/svg" width="40" height="50" viewBox="0 0 40 50"><g transform="translate(-48.8)"><path d="M88.79,43.221,85.928,10.982a1.378,1.378,0,0,0-1.369-1.258H78.672a9.873,9.873,0,0,0-19.745,0H53.041a1.37,1.37,0,0,0-1.369,1.258L48.81,43.221c0,.041-.01.082-.01.123C48.8,47.014,52.162,50,56.3,50h25c4.139,0,7.5-2.986,7.5-6.656A.5.5,0,0,0,88.79,43.221ZM68.8,2.761a7.122,7.122,0,0,1,7.113,6.963H61.687A7.122,7.122,0,0,1,68.8,2.761ZM81.3,47.239h-25c-2.6,0-4.7-1.718-4.742-3.834L54.3,12.495h4.619v4.192a1.38,1.38,0,1,0,2.759,0V12.495H75.913v4.192a1.38,1.38,0,1,0,2.759,0V12.495h4.619L86.041,43.4C86,45.521,83.884,47.239,81.3,47.239Z"/></g></svg>