<svg xmlns="http://www.w3.org/2000/svg" width="15" height="19" viewBox="0 0 15 19"><defs><style>.a{fill:#665e53;}</style></defs><g transform="translate(-36)"><g transform="translate(36.001)"><path class="a" d="M50.046,5.184a.142.142,0,0,0-.136-.137H47.455V4.3a3.969,3.969,0,1,0-7.909,0v.742H37.091a.142.142,0,0,0-.136.137L36,18.84a.156.156,0,0,0,.036.112.131.131,0,0,0,.1.048H50.864a.131.131,0,0,0,.1-.048A.157.157,0,0,0,51,18.84ZM40.637,4.3a2.874,2.874,0,1,1,5.727,0v.742H40.637Zm-.545,4.9a1.429,1.429,0,0,1-1.364-1.484,1.41,1.41,0,0,1,.818-1.36v1.36a.547.547,0,1,0,1.091,0V6.359a1.414,1.414,0,0,1,.818,1.36A1.429,1.429,0,0,1,40.091,9.2Zm6.818,0a1.429,1.429,0,0,1-1.364-1.484,1.41,1.41,0,0,1,.818-1.36v1.36a.547.547,0,1,0,1.091,0V6.359a1.414,1.414,0,0,1,.818,1.36A1.429,1.429,0,0,1,46.91,9.2Z" transform="translate(-36.001)"/></g></g></svg>