<svg xmlns="http://www.w3.org/2000/svg" width="26" height="24" viewBox="0 0 26 24">
  <path id="Path_286" data-name="Path 286" d="M25.964,20.081a.719.719,0,0,0-.582-.475l-8.111-1.114L13.621,11.4a.726.726,0,0,0-.646-.387h0a.721.721,0,0,0-.646.392l-3.6,7.114L.617,19.683a.719.719,0,0,0-.582.475.673.673,0,0,0,.187.712l5.886,5.515L4.747,34.2a.677.677,0,0,0,.288.681.729.729,0,0,0,.422.134.7.7,0,0,0,.336-.083l7.241-3.709L20.3,34.887a.758.758,0,0,0,.331.077h0a.713.713,0,0,0,.72-.7.527.527,0,0,0-.021-.16l-1.4-7.764L25.772,20.8A.667.667,0,0,0,25.964,20.081Zm-7.311,5.525a.674.674,0,0,0-.2.619L19.673,33l-6.308-3.183a.752.752,0,0,0-.672,0L6.407,33.035l1.179-6.784a.682.682,0,0,0-.208-.614l-5.1-4.788,7.039-1.011a.714.714,0,0,0,.539-.382l3.127-6.175,3.17,6.16a.732.732,0,0,0,.544.382l7.044.97Z" transform="translate(0 -11.011)" fill="#665e53"/>
</svg>
