<svg xmlns="http://www.w3.org/2000/svg" width="25" height="24" viewBox="0 0 25 24">
  <path id="star_1_" data-name="star (1)" d="M24.978,10.452a.449.449,0,0,0-.362-.307l-8.1-1.185L12.9,1.57a.445.445,0,0,0-.8,0L8.479,8.96l-8.1,1.185a.452.452,0,0,0-.248.769l5.858,5.753L4.61,24.79a.453.453,0,0,0,.178.441.441.441,0,0,0,.471.034L12.5,21.431l7.24,3.835a.445.445,0,0,0,.472-.034.452.452,0,0,0,.178-.441l-1.383-8.123,5.858-5.753A.454.454,0,0,0,24.978,10.452Z" transform="translate(0 -1.318)" fill="#665e53"/>
</svg>
