<svg xmlns="http://www.w3.org/2000/svg" width="35" height="45" viewBox="0 0 35 45"><path d="M94.284,23.029c5.01,0,9.072-5.155,9.072-11.514S102.023,0,94.284,0s-9.073,5.155-9.073,11.515S89.273,23.029,94.284,23.029Z" transform="translate(-76.784 0)" fill="rgba(9,24,30,0.7)"/><path d="M34.153,245.046c0-.388,0-.109,0,0Z" transform="translate(-34.151 -206.524)" fill="rgba(9,24,30,0.7)"/><path d="M251.134,246.107c.005-.106,0-.736,0,0Z" transform="translate(-216.137 -207.282)" fill="rgba(9,24,30,0.7)"/><path d="M69.137,161.117c-.172-11.078-1.585-14.235-12.4-16.233a6.425,6.425,0,0,1-5.073,1.986,6.426,6.426,0,0,1-5.073-1.986c-10.7,1.976-12.2,5.086-12.4,15.873-.016.881-.024.927-.027.825,0,.192,0,.546,0,1.164,0,0,2.576,5.314,17.5,5.314s17.5-5.314,17.5-5.314c0-.4,0-.673,0-.861A7.293,7.293,0,0,1,69.137,161.117Z" transform="translate(-34.159 -123.059)" fill="rgba(9,24,30,0.7)"/></svg>